<svg width="223" height="185" viewBox="0 0 223 185" fill="none" xmlns="http://www.w3.org/2000/svg">
<path d="M49.3703 24.9195L39.1053 30.8798C24.9256 39.1131 16.1993 54.2706 16.1993 70.6672C16.1993 73.3209 16.4289 75.9696 16.8855 78.5836L21.7804 106.608C21.9303 107.466 21.9599 108.34 21.8683 109.206L21.6637 111.143C21.2759 114.813 18.1811 117.598 14.4914 117.598H13.2778C10.1975 117.598 7.32376 119.147 5.6313 121.721C4.30484 123.738 3.82919 126.198 4.30797 128.564L4.74273 130.713C5.71035 135.495 9.02217 139.468 13.5521 141.281L14.4153 141.626C17.5738 142.89 20.2541 145.117 22.0759 147.99L24.8779 152.409C27.2646 156.173 30.4024 159.404 34.095 161.9L36.759 163.7C43.3957 168.186 51.2229 170.583 59.2333 170.583H61.0188C64.363 170.583 67.6831 170.017 70.8386 168.91L74.6529 167.571C80.4749 165.528 86.9015 166.155 92.2187 169.285C93.6828 170.147 95.2464 170.828 96.8749 171.312L109.526 175.074C116.291 177.086 123.564 176.494 129.915 173.415C133.758 171.551 137.975 170.583 142.246 170.583H154.031C157.751 170.583 161.435 169.849 164.872 168.424L169.251 166.608C172.761 165.152 176.681 165.02 180.281 166.237C185.688 168.064 191.659 166.81 195.875 162.964L201.706 157.643C204.62 154.985 206.962 151.761 208.59 148.168L215.37 133.209C216.915 129.799 217.454 126.018 216.922 122.311C215.767 114.257 209.741 107.836 201.885 105.722C198.108 104.705 195.192 103.789 195.192 103.399V83.4965C195.192 75.6095 193.561 67.8078 190.403 60.5807C185.736 49.9019 177.919 40.905 168.007 34.7765C158.462 28.875 149.089 23.063 148.052 22.3625C147.09 21.7122 141.063 18.3275 134.636 14.755C126.392 10.1724 117.196 7.57239 107.775 7.10074C98.9744 6.66011 90.1802 8.09502 81.9757 11.3103L58.5152 20.5044C55.359 21.7413 52.3019 23.2173 49.3703 24.9195Z" fill="#CFBDA7"/>
<path d="M82.7258 2.26529C82.7258 3.92129 82.0964 4.10529 77.3306 4.10529C72.5649 4.10529 71.9355 4.28929 71.9355 5.94529C71.9355 7.50929 71.3061 7.78529 68.3387 7.78529C65.3714 7.78529 64.7419 8.06129 64.7419 9.62529C64.7419 10.8213 64.1125 11.4653 62.9436 11.4653C61.7746 11.4653 61.1452 12.1093 61.1452 13.3053C61.1452 14.8693 60.5157 15.1453 57.5484 15.1453C54.5811 15.1453 53.9516 15.4213 53.9516 16.9853C53.9516 18.5493 53.3222 18.8253 50.3548 18.8253C47.3875 18.8253 46.7581 19.1013 46.7581 20.6653C46.7581 22.2293 46.1286 22.5053 43.1613 22.5053C40.194 22.5053 39.5645 22.7813 39.5645 24.3453C39.5645 25.5413 38.9351 26.1853 37.7661 26.1853C36.5972 26.1853 35.9677 26.8293 35.9677 28.0253C35.9677 29.5893 35.3383 29.8653 32.371 29.8653C29.4036 29.8653 28.7742 30.1413 28.7742 31.7053C28.7742 33.2693 28.1448 33.5453 25.1774 33.5453C22.2101 33.5453 21.5806 33.8213 21.5806 35.3853C21.5806 36.5813 20.9512 37.2253 19.7823 37.2253C18.6133 37.2253 17.9839 37.8693 17.9839 39.0653C17.9839 40.2613 17.3544 40.9053 16.1855 40.9053C15.0165 40.9053 14.3871 41.5493 14.3871 42.7453C14.3871 43.9413 13.7577 44.5853 12.5887 44.5853C10.8802 44.5853 10.7903 45.2293 10.7903 62.9853C10.7903 80.7413 10.8802 81.3853 12.5887 81.3853C14.2972 81.3853 14.3871 82.0293 14.3871 94.2653C14.3871 106.501 14.477 107.145 16.1855 107.145C17.7141 107.145 17.9839 107.789 17.9839 110.825C17.9839 113.861 17.7141 114.505 16.1855 114.505C15.0165 114.505 14.3871 113.861 14.3871 112.665C14.3871 111.101 13.7577 110.825 10.7903 110.825C7.82298 110.825 7.19355 111.101 7.19355 112.665C7.19355 113.861 6.56411 114.505 5.39516 114.505C4.22621 114.505 3.59677 115.149 3.59677 116.345C3.59677 117.541 2.96734 118.185 1.79839 118.185C0.0899194 118.185 0 118.829 0 127.385C0 135.941 0.0899194 136.585 1.79839 136.585C3.32702 136.585 3.59677 137.229 3.59677 140.265C3.59677 143.301 3.86653 143.945 5.39516 143.945C6.56411 143.945 7.19355 144.589 7.19355 145.785C7.19355 147.441 7.82298 147.625 12.5887 147.625H17.9839V151.305C17.9839 154.341 18.2536 154.985 19.7823 154.985C21.3109 154.985 21.5806 155.629 21.5806 158.665C21.5806 161.701 21.8504 162.345 23.379 162.345C24.548 162.345 25.1774 162.989 25.1774 164.185C25.1774 165.381 25.8069 166.025 26.9758 166.025C28.1448 166.025 28.7742 166.669 28.7742 167.865C28.7742 169.521 29.4036 169.705 34.1694 169.705C38.9351 169.705 39.5645 169.889 39.5645 171.545C39.5645 173.201 40.194 173.385 44.9597 173.385C49.7254 173.385 50.3548 173.569 50.3548 175.225C50.3548 176.973 50.9843 177.065 59.3468 177.065C67.7093 177.065 68.3387 176.973 68.3387 175.225C68.3387 173.569 68.9681 173.385 73.7339 173.385C78.4996 173.385 79.129 173.201 79.129 171.545C79.129 169.981 79.7585 169.705 82.7258 169.705C85.6931 169.705 86.3226 169.981 86.3226 171.545C86.3226 172.741 86.952 173.385 88.121 173.385C89.2899 173.385 89.9194 174.029 89.9194 175.225C89.9194 176.789 90.5488 177.065 93.5161 177.065C96.4835 177.065 97.1129 177.341 97.1129 178.905C97.1129 180.469 97.7423 180.745 100.71 180.745C103.677 180.745 104.306 181.021 104.306 182.585C104.306 184.333 104.936 184.425 116.895 184.425C128.854 184.425 129.484 184.333 129.484 182.585C129.484 181.021 130.113 180.745 133.081 180.745C136.048 180.745 136.677 180.469 136.677 178.905C136.677 177.341 137.307 177.065 140.274 177.065C143.242 177.065 143.871 177.341 143.871 178.905C143.871 180.561 144.5 180.745 151.065 180.745C157.629 180.745 158.258 180.561 158.258 178.905C158.258 177.249 158.888 177.065 163.653 177.065C168.419 177.065 169.048 176.881 169.048 175.225C169.048 174.029 169.678 173.385 170.847 173.385C172.016 173.385 172.645 172.741 172.645 171.545C172.645 169.981 173.275 169.705 176.242 169.705C179.209 169.705 179.839 169.981 179.839 171.545C179.839 173.293 180.468 173.385 188.831 173.385C197.193 173.385 197.823 173.293 197.823 171.545C197.823 169.981 198.452 169.705 201.419 169.705C204.387 169.705 205.016 169.429 205.016 167.865C205.016 166.669 205.646 166.025 206.815 166.025C208.343 166.025 208.613 165.381 208.613 162.345C208.613 159.309 208.883 158.665 210.411 158.665C212.03 158.665 212.21 158.021 212.21 151.305C212.21 144.589 212.39 143.945 214.008 143.945C215.177 143.945 215.806 143.301 215.806 142.105C215.806 140.909 216.436 140.265 217.605 140.265C219.133 140.265 219.403 139.621 219.403 136.585C219.403 133.549 219.673 132.905 221.202 132.905C222.91 132.905 223 132.261 223 121.865C223 111.469 222.91 110.825 221.202 110.825C219.673 110.825 219.403 110.181 219.403 107.145V103.465H215.806C212.839 103.465 212.21 103.189 212.21 101.625C212.21 99.9693 211.58 99.7853 206.815 99.7853C202.049 99.7853 201.419 99.6013 201.419 97.9453C201.419 96.7493 200.79 96.1053 199.621 96.1053C197.913 96.1053 197.823 95.4613 197.823 74.0253C197.823 52.5893 197.733 51.9453 196.024 51.9453C194.406 51.9453 194.226 51.3013 194.226 46.4253C194.226 41.5493 194.046 40.9053 192.427 40.9053C191.258 40.9053 190.629 40.2613 190.629 39.0653C190.629 37.5013 190 37.2253 187.032 37.2253C184.065 37.2253 183.435 36.9493 183.435 35.3853C183.435 33.8213 182.806 33.5453 179.839 33.5453C176.871 33.5453 176.242 33.2693 176.242 31.7053C176.242 30.1413 175.613 29.8653 172.645 29.8653C169.678 29.8653 169.048 29.5893 169.048 28.0253C169.048 26.4613 168.419 26.1853 165.452 26.1853C162.484 26.1853 161.855 25.9093 161.855 24.3453C161.855 23.1493 161.225 22.5053 160.056 22.5053C158.888 22.5053 158.258 21.8613 158.258 20.6653C158.258 19.1013 157.629 18.8253 154.661 18.8253C151.694 18.8253 151.065 18.5493 151.065 16.9853C151.065 15.4213 150.435 15.1453 147.468 15.1453C144.5 15.1453 143.871 14.8693 143.871 13.3053C143.871 11.7413 143.242 11.4653 140.274 11.4653C137.307 11.4653 136.677 11.1893 136.677 9.62529C136.677 8.06129 136.048 7.78529 133.081 7.78529C130.113 7.78529 129.484 7.50929 129.484 5.94529C129.484 4.28929 128.854 4.10529 124.089 4.10529C119.323 4.10529 118.694 3.92129 118.694 2.26529C118.694 0.517293 118.064 0.425293 100.71 0.425293C83.3552 0.425293 82.7258 0.517293 82.7258 2.26529ZM115.097 13.3053C115.097 14.8693 115.726 15.1453 118.694 15.1453C121.661 15.1453 122.29 15.4213 122.29 16.9853C122.29 18.5493 122.92 18.8253 125.887 18.8253C128.854 18.8253 129.484 19.1013 129.484 20.6653C129.484 21.8613 130.113 22.5053 131.282 22.5053C132.451 22.5053 133.081 23.1493 133.081 24.3453C133.081 26.0013 133.71 26.1853 138.476 26.1853C143.242 26.1853 143.871 26.3693 143.871 28.0253C143.871 29.2213 144.5 29.8653 145.669 29.8653C146.838 29.8653 147.468 30.5093 147.468 31.7053C147.468 33.2693 148.097 33.5453 151.065 33.5453C154.032 33.5453 154.661 33.8213 154.661 35.3853C154.661 36.5813 155.291 37.2253 156.46 37.2253C157.629 37.2253 158.258 37.8693 158.258 39.0653C158.258 40.6293 158.888 40.9053 161.855 40.9053C164.822 40.9053 165.452 41.1813 165.452 42.7453C165.452 44.3093 166.081 44.5853 169.048 44.5853C172.016 44.5853 172.645 44.8613 172.645 46.4253C172.645 47.9893 173.275 48.2653 176.242 48.2653C179.209 48.2653 179.839 48.5413 179.839 50.1053C179.839 51.3013 180.468 51.9453 181.637 51.9453C183.166 51.9453 183.435 52.5893 183.435 55.6253C183.435 58.6613 183.705 59.3053 185.234 59.3053C187.032 59.3053 187.032 59.9493 187.032 86.9053C187.032 113.861 187.032 114.505 188.831 114.505C190 114.505 190.629 115.149 190.629 116.345C190.629 117.541 191.258 118.185 192.427 118.185C193.596 118.185 194.226 117.541 194.226 116.345C194.226 114.689 194.855 114.505 201.419 114.505C207.983 114.505 208.613 114.689 208.613 116.345C208.613 117.541 209.242 118.185 210.411 118.185C211.94 118.185 212.21 118.829 212.21 121.865C212.21 124.901 211.94 125.545 210.411 125.545C209.242 125.545 208.613 126.189 208.613 127.385C208.613 128.581 207.983 129.225 206.815 129.225C205.646 129.225 205.016 129.869 205.016 131.065C205.016 132.261 204.387 132.905 203.218 132.905C201.689 132.905 201.419 133.549 201.419 136.585C201.419 139.621 201.15 140.265 199.621 140.265C198.002 140.265 197.823 140.909 197.823 147.625C197.823 154.341 197.643 154.985 196.024 154.985C194.855 154.985 194.226 155.629 194.226 156.825C194.226 158.021 193.596 158.665 192.427 158.665C191.258 158.665 190.629 159.309 190.629 160.505C190.629 162.069 190 162.345 187.032 162.345C184.065 162.345 183.435 162.069 183.435 160.505C183.435 158.849 182.806 158.665 178.04 158.665C173.275 158.665 172.645 158.481 172.645 156.825C172.645 155.169 172.016 154.985 167.25 154.985H161.855V158.665C161.855 161.701 161.585 162.345 160.056 162.345C158.888 162.345 158.258 162.989 158.258 164.185C158.258 165.933 157.629 166.025 149.266 166.025C140.904 166.025 140.274 165.933 140.274 164.185C140.274 162.529 139.645 162.345 134.879 162.345C130.113 162.345 129.484 162.529 129.484 164.185C129.484 165.381 128.854 166.025 127.685 166.025C126.157 166.025 125.887 166.669 125.887 169.705V173.385H120.492C115.726 173.385 115.097 173.201 115.097 171.545C115.097 169.889 114.467 169.705 109.702 169.705C104.936 169.705 104.306 169.521 104.306 167.865C104.306 166.669 103.677 166.025 102.508 166.025C101.339 166.025 100.71 165.381 100.71 164.185C100.71 162.989 100.08 162.345 98.9113 162.345C97.7423 162.345 97.1129 161.701 97.1129 160.505C97.1129 158.941 96.4835 158.665 93.5161 158.665C90.5488 158.665 89.9194 158.389 89.9194 156.825C89.9194 155.169 89.2899 154.985 84.5242 154.985C79.7585 154.985 79.129 155.169 79.129 156.825C79.129 158.021 78.4996 158.665 77.3306 158.665C76.1617 158.665 75.5323 159.309 75.5323 160.505C75.5323 162.161 74.9028 162.345 70.1371 162.345C65.3714 162.345 64.7419 162.529 64.7419 164.185C64.7419 165.841 64.1125 166.025 57.5484 166.025C50.9843 166.025 50.3548 165.841 50.3548 164.185C50.3548 162.621 49.7254 162.345 46.7581 162.345C43.7907 162.345 43.1613 162.069 43.1613 160.505C43.1613 158.941 42.5319 158.665 39.5645 158.665H35.9677V154.985C35.9677 151.949 35.698 151.305 34.1694 151.305C32.5508 151.305 32.371 150.661 32.371 145.785V140.265H28.7742C25.8069 140.265 25.1774 139.989 25.1774 138.425C25.1774 136.769 24.548 136.585 19.7823 136.585C15.0165 136.585 14.3871 136.401 14.3871 134.745C14.3871 133.549 13.7577 132.905 12.5887 132.905C10.9702 132.905 10.7903 132.261 10.7903 127.385C10.7903 122.509 10.9702 121.865 12.5887 121.865C13.7577 121.865 14.3871 122.509 14.3871 123.705C14.3871 125.361 15.0165 125.545 19.7823 125.545C24.548 125.545 25.1774 125.361 25.1774 123.705C25.1774 122.509 25.8069 121.865 26.9758 121.865C28.6843 121.865 28.7742 121.221 28.7742 107.145C28.7742 93.0693 28.6843 92.4253 26.9758 92.4253C25.3573 92.4253 25.1774 91.7813 25.1774 85.0653C25.1774 78.3493 24.9976 77.7053 23.379 77.7053C21.6706 77.7053 21.5806 77.0613 21.5806 68.5053V59.3053H26.9758C31.7415 59.3053 32.371 59.4893 32.371 61.1453C32.371 62.8013 33.0004 62.9853 37.7661 62.9853C42.5319 62.9853 43.1613 63.1693 43.1613 64.8253C43.1613 66.0213 43.7907 66.6653 44.9597 66.6653C46.1286 66.6653 46.7581 67.3093 46.7581 68.5053C46.7581 70.0693 47.3875 70.3453 50.3548 70.3453C53.3222 70.3453 53.9516 70.0693 53.9516 68.5053C53.9516 67.3093 54.5811 66.6653 55.75 66.6653C56.919 66.6653 57.5484 66.0213 57.5484 64.8253C57.5484 63.6293 56.919 62.9853 55.75 62.9853C54.5811 62.9853 53.9516 62.3413 53.9516 61.1453C53.9516 59.5813 53.3222 59.3053 50.3548 59.3053C47.3875 59.3053 46.7581 59.0293 46.7581 57.4653C46.7581 55.8093 46.1286 55.6253 41.3629 55.6253C36.5972 55.6253 35.9677 55.4413 35.9677 53.7853C35.9677 52.1293 35.3383 51.9453 30.5726 51.9453C25.8069 51.9453 25.1774 51.7613 25.1774 50.1053C25.1774 48.5413 25.8069 48.2653 28.7742 48.2653C31.7415 48.2653 32.371 47.9893 32.371 46.4253C32.371 44.8613 33.0004 44.5853 35.9677 44.5853C38.9351 44.5853 39.5645 44.3093 39.5645 42.7453C39.5645 41.5493 40.194 40.9053 41.3629 40.9053C42.5319 40.9053 43.1613 40.2613 43.1613 39.0653C43.1613 37.5013 43.7907 37.2253 46.7581 37.2253C49.7254 37.2253 50.3548 36.9493 50.3548 35.3853C50.3548 34.1893 50.9843 33.5453 52.1532 33.5453C53.3222 33.5453 53.9516 32.9013 53.9516 31.7053C53.9516 30.1413 54.5811 29.8653 57.5484 29.8653C60.5157 29.8653 61.1452 29.5893 61.1452 28.0253C61.1452 26.4613 61.7746 26.1853 64.7419 26.1853C67.7093 26.1853 68.3387 25.9093 68.3387 24.3453C68.3387 22.7813 68.9681 22.5053 71.9355 22.5053C74.9028 22.5053 75.5323 22.2293 75.5323 20.6653C75.5323 19.1013 76.1617 18.8253 79.129 18.8253C82.0964 18.8253 82.7258 18.5493 82.7258 16.9853C82.7258 15.4213 83.3552 15.1453 86.3226 15.1453C89.2899 15.1453 89.9194 14.8693 89.9194 13.3053C89.9194 11.5573 90.5488 11.4653 102.508 11.4653C114.467 11.4653 115.097 11.5573 115.097 13.3053Z" fill="#463E3C"/>
<path d="M165.451 64.8254C165.451 66.0214 164.822 66.6654 163.653 66.6654C162.124 66.6654 161.854 67.3094 161.854 70.3454C161.854 73.3814 162.124 74.0254 163.653 74.0254C164.822 74.0254 165.451 74.6694 165.451 75.8654C165.451 77.0614 166.081 77.7054 167.25 77.7054C168.419 77.7054 169.048 78.3494 169.048 79.5454C169.048 81.1094 169.677 81.3854 172.645 81.3854C175.612 81.3854 176.242 81.1094 176.242 79.5454C176.242 78.3494 176.871 77.7054 178.04 77.7054C179.659 77.7054 179.838 77.0614 179.838 70.3454V62.9854H172.645C166.081 62.9854 165.451 63.1694 165.451 64.8254Z" fill="#463E3C"/>
<path d="M115.097 68.5052C115.097 70.1612 114.468 70.3452 109.702 70.3452C104.936 70.3452 104.307 70.5292 104.307 72.1852C104.307 73.9332 103.678 74.0252 88.1215 74.0252C72.5655 74.0252 71.936 74.1172 71.936 75.8652C71.936 77.4292 72.5655 77.7052 75.5328 77.7052C78.5001 77.7052 79.1296 77.9812 79.1296 79.5452C79.1296 81.2012 79.759 81.3852 84.5247 81.3852C89.2905 81.3852 89.9199 81.5692 89.9199 83.2252C89.9199 84.7892 90.5493 85.0652 93.5167 85.0652C96.484 85.0652 97.1135 84.7892 97.1135 83.2252C97.1135 81.5692 97.7429 81.3852 102.509 81.3852C107.274 81.3852 107.904 81.2012 107.904 79.5452C107.904 78.3492 108.533 77.7052 109.702 77.7052C110.871 77.7052 111.501 77.0612 111.501 75.8652C111.501 74.2092 112.13 74.0252 116.896 74.0252C121.661 74.0252 122.291 73.8412 122.291 72.1852C122.291 70.9892 122.92 70.3452 124.089 70.3452C125.258 70.3452 125.888 69.7012 125.888 68.5052C125.888 66.8492 125.258 66.6652 120.492 66.6652C115.727 66.6652 115.097 66.8492 115.097 68.5052Z" fill="#463E3C"/>
<path d="M100.71 90.5855C100.71 91.7815 100.081 92.4255 98.9117 92.4255C97.2931 92.4255 97.1133 93.0695 97.1133 97.9455C97.1133 102.822 97.2931 103.466 98.9117 103.466C100.081 103.466 100.71 104.11 100.71 105.306C100.71 106.87 101.339 107.146 104.307 107.146C107.274 107.146 107.904 106.87 107.904 105.306C107.904 104.11 108.533 103.466 109.702 103.466C111.321 103.466 111.5 102.822 111.5 96.1055V88.7455H106.105C101.339 88.7455 100.71 88.9295 100.71 90.5855Z" fill="#463E3C"/>
<path d="M130.391 131.736C130.315 130.174 130.93 129.868 133.894 129.725C136.858 129.582 137.473 129.276 137.398 127.714C137.34 126.52 137.937 125.846 139.105 125.79C140.272 125.734 140.87 125.06 140.812 123.866C140.736 122.304 141.352 121.998 144.315 121.855C147.279 121.712 147.895 121.406 147.819 119.844C147.739 118.19 148.359 117.976 153.119 117.747C157.879 117.518 158.499 117.304 158.418 115.65C158.338 113.996 158.958 113.782 165.515 113.466L172.7 113.12L172.432 107.607C172.196 102.737 171.985 102.102 170.369 102.18C169.201 102.236 168.541 101.623 168.483 100.428C168.425 99.2337 167.766 98.6207 166.598 98.6769C165.43 98.7331 164.77 98.1201 164.713 96.9255C164.632 95.2714 163.995 95.1179 159.235 95.347C154.474 95.5761 153.837 95.4225 153.757 93.7685C153.672 92.0225 153.039 91.9609 144.686 92.3628C136.333 92.7648 135.709 92.8869 135.794 94.6329C135.874 96.287 135.254 96.501 130.494 96.7301C125.734 96.9592 125.114 97.1732 125.194 98.8273C125.252 100.022 124.655 100.695 123.487 100.752C122.319 100.808 121.722 101.481 121.78 102.676C121.838 103.87 121.24 104.544 120.073 104.6C118.456 104.678 118.307 105.33 118.544 110.2C118.78 115.071 118.631 115.722 117.015 115.8C115.398 115.878 115.25 116.53 115.486 121.4C115.722 126.271 115.933 126.905 117.549 126.827C119.076 126.754 119.377 127.384 119.524 130.417L119.702 134.092L125.091 133.833C129.851 133.604 130.471 133.39 130.391 131.736Z" fill="#463E3C"/>
<path d="M86.3224 97.9453C86.3224 99.1413 85.6929 99.7853 84.524 99.7853C82.8155 99.7853 82.7256 100.429 82.7256 118.185C82.7256 135.941 82.8155 136.585 84.524 136.585C85.6929 136.585 86.3224 137.229 86.3224 138.425C86.3224 139.621 86.9518 140.265 88.1207 140.265C89.8292 140.265 89.9191 139.621 89.9191 118.185C89.9191 96.7493 89.8292 96.1053 88.1207 96.1053C86.9518 96.1053 86.3224 96.7493 86.3224 97.9453Z" fill="#463E3C"/>
</svg>
