<svg width="1920" height="1080" viewBox="0 0 1920 1080" fill="none" xmlns="http://www.w3.org/2000/svg">
<rect width="1920" height="1080" fill="#5353CD"/>
<g opacity="0.1">
<mask id="mask0_886_307" style="mask-type:luminance" maskUnits="userSpaceOnUse" x="0" y="0" width="1920" height="1080">
<rect width="1920" height="1080" fill="white"/>
</mask>
<g mask="url(#mask0_886_307)">
<path d="M-1162.99 1122.86L1097.87 -1589.81L2316.37 1724.6L-1162.99 1122.86Z" fill="#F1F1F2"/>
<path d="M-269.86 2024.22L1990.88 -687.778L3209.5 2625.96L-269.86 2024.22Z" fill="#231F20"/>
<path d="M-3425.41 916.919L-1164.67 -1795.08L53.9527 1518.65L-3425.41 916.919Z" fill="#808184"/>
<path d="M15.1666 76.8945L2276.02 -2635.78L3494.53 678.627L15.1666 76.8945Z" fill="#929497"/>
<path d="M-2172.4 1249.71L88.3399 -1462.29L1306.97 1851.44L-2172.4 1249.71Z" fill="#636466"/>
<path d="M-1655.37 3205.67L605.482 492.99L1823.99 3807.4L-1655.37 3205.67Z" fill="#59595C"/>
<path d="M-1508.57 -263.553L-649.991 -1293.46L-187.169 -35.0257L-1508.57 -263.553ZM-1397.41 2389.39L-538.837 1359.49L-76.0149 2617.92L-1397.41 2389.39Z" fill="#A7A8AB"/>
<path d="M436.667 587.578L1295.24 -442.328L1758.06 816.105L436.667 587.578Z" fill="#6D6E70"/>
<path d="M1317.25 1335.01L1746.14 820.337L1977.27 1449.16L1317.25 1335.01ZM-372.002 1700.94L486.573 671.038L949.395 1929.47L-372.002 1700.94Z" fill="#221F1F"/>
<path d="M-366.749 1229.8L491.826 199.891L954.648 1458.32L-366.749 1229.8Z" fill="#404041"/>
<path d="M953.65 1714.81L1811.55 684.787L2274.37 1943.22L953.65 1714.81Z" fill="#808184"/>
<path d="M817.418 925.471L1241.85 416.323L1470.65 1038.44L817.418 925.471Z" fill="#404041"/>
<path d="M1424.66 887.824L1849.1 378.676L2077.89 1000.8L1424.66 887.824Z" fill="#F1F1F2"/>
<path d="M-644.638 -592.493L-220.2 -1101.64L8.59155 -479.521L-644.638 -592.493ZM-1145.45 346.13L-721.011 -163.018L-492.219 459.102L-1145.45 346.13Z" fill="#A7A8AB"/>
<path d="M146.625 1314.39L571.062 805.237L799.854 1427.36L146.625 1314.39Z" fill="#A6A8AB"/>
<path d="M201.617 842.749L361.396 650.788L446.747 885.142L201.617 842.749Z" fill="#231F20"/>
<path d="M902.112 1119.15L1114.05 864.176L1228.73 1175.63L902.112 1119.15ZM1004.13 310.87L1215.95 56.5768L1330.75 367.356L1004.13 310.87Z" fill="#A7A8AB"/>
<path d="M1197.91 -105.993L1622.35 -615.141L1850.46 6.86102L1197.91 -105.993Z" fill="#F1F1F2"/>
<path d="M-376.466 -92.9405L47.9716 -602.089L276.764 20.0312L-376.466 -92.9405Z" fill="#A6A8AB"/>
<path d="M1315.37 808.08L1476.98 613.638L1563.9 851.061L1315.37 808.08Z" fill="#A6A8AB"/>
<path d="M516.783 1030.13L678.39 835.688L765.309 1073.11L516.783 1030.13Z" fill="#58595B"/>
<path d="M-453.09 -495.026L-291.483 -689.468L-203.885 -451.928L-453.09 -495.026ZM979.836 1656.4L1141.33 1462.63L1228.36 1699.38L979.836 1656.4Z" fill="#59595C"/>
<path d="M1712.81 212.438L1874.41 17.9958L1961.33 255.419L1712.81 212.438Z" fill="#808184"/>
<path d="M-182.116 566.582L-20.5087 372.141L67.0892 609.681L-182.116 566.582Z" fill="#BBBDBF"/>
<path d="M-71.5869 1019.29L90.0201 824.849L177.618 1062.39L-71.5869 1019.29ZM-225.503 101.711L-63.3346 -91.9348L23.7017 144.809L-225.503 101.711Z" fill="#F1F1F2"/>
<path d="M-50.587 28.4571L29.7596 -68.1434L73.676 49.9475L-50.587 28.4571Z" fill="#BBBDBF"/>
<path d="M53.6115 1908.83L215.219 1714.38L302.137 1951.81L53.6115 1908.83ZM2954.25 1493.64L3116.54 1299.31L3203.46 1536.73L2954.25 1493.64Z" fill="#59595C"/>
<path d="M1557.85 133.888L1719.34 -59.8743L1806.37 176.869L1557.85 133.888Z" fill="#F2F2F2"/>
<path d="M-1276.52 1124.21L-1115.03 930.448L-1027.31 1167.31L-1276.52 1124.21ZM1299.19 1399.02L1461.48 1204.7L1548.39 1442.12L1299.19 1399.02Z" fill="#808184"/>
<path d="M1416.74 1091.36L1497.88 994.197L1541 1112.85L1416.74 1091.36Z" fill="#A7A8AB"/>
<path d="M1059.77 49.8457L1155.98 -65.6911L1207.8 75.4463L1059.77 49.8457Z" fill="#D0D2D3"/>
</g>
</g>
</svg>
