<svg width="122" height="35" viewBox="0 0 122 35" fill="none" xmlns="http://www.w3.org/2000/svg">
<path d="M9.17987 4.60507L7.30925 5.70134C4.64903 7.26036 3.01457 10.1127 3.01457 13.1961C3.01457 13.6926 3.05714 14.1882 3.1418 14.6774L4.05353 19.9457C4.08118 20.1055 4.08664 20.2683 4.06976 20.4296L4.03028 20.8066C3.95879 21.4894 3.3832 22.0078 2.69674 22.0078H2.48235C1.90233 22.0078 1.36159 22.3009 1.04496 22.7869C0.799874 23.1631 0.712027 23.6203 0.800276 24.0606L0.88173 24.4669C1.06237 25.368 1.6842 26.1178 2.53634 26.462L2.68068 26.5203C3.26964 26.7582 3.76856 27.1757 4.10647 27.7136L4.6304 28.5475C5.07401 29.2537 5.65853 29.8607 6.34741 30.3306L6.84683 30.6713C8.07737 31.5107 9.53237 31.9597 11.022 31.9597H11.3544C11.9771 31.9597 12.5953 31.8535 13.1823 31.6456L13.889 31.3953C14.9736 31.0111 16.1728 31.1288 17.1621 31.7166C17.4339 31.8781 17.7245 32.0057 18.0274 32.0966L20.3793 32.8026C21.6391 33.1807 22.9952 33.0696 24.1766 32.4914C24.8914 32.1416 25.6767 31.9597 26.4724 31.9597H28.663C29.3558 31.9597 30.0418 31.822 30.6809 31.5544L31.4962 31.2132C32.1491 30.9398 32.8795 30.9151 33.5494 31.1436C34.554 31.4862 35.6655 31.2519 36.4462 30.5329L37.5428 29.523C38.0805 29.0279 38.5121 28.4287 38.8115 27.7618L40.0805 24.9358C40.367 24.2978 40.4668 23.5917 40.3683 22.8993C40.1528 21.3827 39.0201 20.1727 37.5421 19.7699C36.8524 19.5819 36.3236 19.4134 36.3236 19.341V15.5899C36.3236 14.1168 36.0216 12.6594 35.4363 11.3075C34.5654 9.29591 33.1014 7.5982 31.2417 6.43769C29.4734 5.33419 27.7434 4.25139 27.5514 4.12038C27.372 3.99804 26.2469 3.36036 25.0486 2.68811C23.5187 1.82982 21.8093 1.34244 20.0573 1.25391C18.4191 1.17113 16.7821 1.44049 15.2568 2.04383L10.8983 3.76778C10.3049 4.0025 9.73043 4.28242 9.17987 4.60507Z" fill="#CFBDA7"/>
<path d="M15.3946 0.345638C15.3946 0.656673 15.2775 0.691235 14.3906 0.691235C13.5037 0.691235 13.3866 0.725792 13.3866 1.03683C13.3866 1.33059 13.2695 1.38243 12.7173 1.38243C12.1651 1.38243 12.048 1.43427 12.048 1.72802C12.048 1.95266 11.9308 2.07362 11.7133 2.07362C11.4958 2.07362 11.3786 2.19458 11.3786 2.41922C11.3786 2.71297 11.2615 2.76481 10.7093 2.76481C10.1571 2.76481 10.04 2.81665 10.04 3.11041C10.04 3.40417 9.92283 3.45601 9.37063 3.45601C8.81843 3.45601 8.7013 3.50784 8.7013 3.8016C8.7013 4.09536 8.58417 4.1472 8.03197 4.1472C7.47977 4.1472 7.36264 4.19904 7.36264 4.49279C7.36264 4.71743 7.24551 4.83839 7.02797 4.83839C6.81044 4.83839 6.69331 4.95935 6.69331 5.18399C6.69331 5.47775 6.57617 5.52958 6.02398 5.52958C5.47178 5.52958 5.35465 5.58142 5.35465 5.87518C5.35465 6.16894 5.23751 6.22078 4.68532 6.22078C4.13312 6.22078 4.01598 6.27262 4.01598 6.56637C4.01598 6.79101 3.89885 6.91197 3.68132 6.91197C3.46379 6.91197 3.34665 7.03293 3.34665 7.25757C3.34665 7.4822 3.22952 7.60316 3.01199 7.60316C2.79446 7.60316 2.67732 7.72412 2.67732 7.94876C2.67732 8.1734 2.56019 8.29436 2.34266 8.29436C2.02473 8.29436 2.00799 8.41532 2.00799 11.7503C2.00799 15.0853 2.02473 15.2063 2.34266 15.2063C2.66059 15.2063 2.67732 15.3272 2.67732 17.6255C2.67732 19.9237 2.69406 20.0446 3.01199 20.0446C3.29645 20.0446 3.34665 20.1656 3.34665 20.7358C3.34665 21.3061 3.29645 21.427 3.01199 21.427C2.79446 21.427 2.67732 21.3061 2.67732 21.0814C2.67732 20.7877 2.56019 20.7358 2.00799 20.7358C1.45579 20.7358 1.33866 20.7877 1.33866 21.0814C1.33866 21.3061 1.22153 21.427 1.004 21.427C0.786464 21.427 0.669331 21.548 0.669331 21.7726C0.669331 21.9973 0.552198 22.1182 0.334665 22.1182C0.0167333 22.1182 0 22.2392 0 23.8462C0 25.4532 0.0167333 25.5742 0.334665 25.5742C0.619131 25.5742 0.669331 25.6951 0.669331 26.2654C0.669331 26.8356 0.719531 26.9566 1.004 26.9566C1.22153 26.9566 1.33866 27.0775 1.33866 27.3022C1.33866 27.6132 1.45579 27.6478 2.34266 27.6478H3.34665V28.339C3.34665 28.9092 3.39685 29.0301 3.68132 29.0301C3.96578 29.0301 4.01598 29.1511 4.01598 29.7213C4.01598 30.2916 4.06618 30.4125 4.35065 30.4125C4.56818 30.4125 4.68532 30.5335 4.68532 30.7581C4.68532 30.9828 4.80245 31.1037 5.01998 31.1037C5.23751 31.1037 5.35465 31.2247 5.35465 31.4493C5.35465 31.7604 5.47178 31.7949 6.35864 31.7949C7.24551 31.7949 7.36264 31.8295 7.36264 32.1405C7.36264 32.4516 7.47977 32.4861 8.36663 32.4861C9.2535 32.4861 9.37063 32.5207 9.37063 32.8317C9.37063 33.16 9.48776 33.1773 11.044 33.1773C12.6002 33.1773 12.7173 33.16 12.7173 32.8317C12.7173 32.5207 12.8344 32.4861 13.7213 32.4861C14.6081 32.4861 14.7253 32.4516 14.7253 32.1405C14.7253 31.8468 14.8424 31.7949 15.3946 31.7949C15.9468 31.7949 16.0639 31.8468 16.0639 32.1405C16.0639 32.3652 16.1811 32.4861 16.3986 32.4861C16.6161 32.4861 16.7333 32.6071 16.7333 32.8317C16.7333 33.1255 16.8504 33.1773 17.4026 33.1773C17.9548 33.1773 18.0719 33.2291 18.0719 33.5229C18.0719 33.8167 18.1891 33.8685 18.7413 33.8685C19.2935 33.8685 19.4106 33.9203 19.4106 34.2141C19.4106 34.5424 19.5277 34.5597 21.7532 34.5597C23.9788 34.5597 24.0959 34.5424 24.0959 34.2141C24.0959 33.9203 24.213 33.8685 24.7652 33.8685C25.3174 33.8685 25.4346 33.8167 25.4346 33.5229C25.4346 33.2291 25.5517 33.1773 26.1039 33.1773C26.6561 33.1773 26.7732 33.2291 26.7732 33.5229C26.7732 33.8339 26.8904 33.8685 28.1119 33.8685C29.3334 33.8685 29.4506 33.8339 29.4506 33.5229C29.4506 33.2119 29.5677 33.1773 30.4545 33.1773C31.3414 33.1773 31.4585 33.1427 31.4585 32.8317C31.4585 32.6071 31.5757 32.4861 31.7932 32.4861C32.0107 32.4861 32.1279 32.3652 32.1279 32.1405C32.1279 31.8468 32.245 31.7949 32.7972 31.7949C33.3494 31.7949 33.4665 31.8468 33.4665 32.1405C33.4665 32.4688 33.5837 32.4861 35.1399 32.4861C36.6961 32.4861 36.8132 32.4688 36.8132 32.1405C36.8132 31.8468 36.9303 31.7949 37.4825 31.7949C38.0347 31.7949 38.1519 31.7431 38.1519 31.4493C38.1519 31.2247 38.269 31.1037 38.4865 31.1037C38.771 31.1037 38.8212 30.9828 38.8212 30.4125C38.8212 29.8423 38.8714 29.7213 39.1558 29.7213C39.457 29.7213 39.4905 29.6004 39.4905 28.339C39.4905 27.0775 39.524 26.9566 39.8252 26.9566C40.0427 26.9566 40.1598 26.8356 40.1598 26.611C40.1598 26.3863 40.277 26.2654 40.4945 26.2654C40.779 26.2654 40.8292 26.1444 40.8292 25.5742C40.8292 25.0039 40.8794 24.883 41.1638 24.883C41.4818 24.883 41.4985 24.762 41.4985 22.8094C41.4985 20.8568 41.4818 20.7358 41.1638 20.7358C40.8794 20.7358 40.8292 20.6149 40.8292 20.0446V19.3534H40.1598C39.6076 19.3534 39.4905 19.3016 39.4905 19.0078C39.4905 18.6968 39.3734 18.6623 38.4865 18.6623C37.5997 18.6623 37.4825 18.6277 37.4825 18.3167C37.4825 18.092 37.3654 17.9711 37.1479 17.9711C36.8299 17.9711 36.8132 17.8501 36.8132 13.8239C36.8132 9.7977 36.7965 9.67674 36.4785 9.67674C36.1773 9.67674 36.1439 9.55578 36.1439 8.63995C36.1439 7.72412 36.1104 7.60316 35.8092 7.60316C35.5917 7.60316 35.4745 7.4822 35.4745 7.25757C35.4745 6.96381 35.3574 6.91197 34.8052 6.91197C34.253 6.91197 34.1359 6.86013 34.1359 6.56637C34.1359 6.27262 34.0187 6.22078 33.4665 6.22078C32.9143 6.22078 32.7972 6.16894 32.7972 5.87518C32.7972 5.58142 32.6801 5.52958 32.1279 5.52958C31.5757 5.52958 31.4585 5.47775 31.4585 5.18399C31.4585 4.89023 31.3414 4.83839 30.7892 4.83839C30.237 4.83839 30.1199 4.78655 30.1199 4.49279C30.1199 4.26816 30.0028 4.1472 29.7852 4.1472C29.5677 4.1472 29.4506 4.02624 29.4506 3.8016C29.4506 3.50784 29.3334 3.45601 28.7812 3.45601C28.229 3.45601 28.1119 3.40417 28.1119 3.11041C28.1119 2.81665 27.9948 2.76481 27.4426 2.76481C26.8904 2.76481 26.7732 2.71297 26.7732 2.41922C26.7732 2.12546 26.6561 2.07362 26.1039 2.07362C25.5517 2.07362 25.4346 2.02178 25.4346 1.72802C25.4346 1.43427 25.3174 1.38243 24.7652 1.38243C24.213 1.38243 24.0959 1.33059 24.0959 1.03683C24.0959 0.725792 23.9788 0.691235 23.0919 0.691235C22.205 0.691235 22.0879 0.656673 22.0879 0.345638C22.0879 0.0173187 21.9708 4.19617e-05 18.7413 4.19617e-05C15.5117 4.19617e-05 15.3946 0.0173187 15.3946 0.345638ZM21.4186 2.41922C21.4186 2.71297 21.5357 2.76481 22.0879 2.76481C22.6401 2.76481 22.7572 2.81665 22.7572 3.11041C22.7572 3.40417 22.8744 3.45601 23.4266 3.45601C23.9788 3.45601 24.0959 3.50784 24.0959 3.8016C24.0959 4.02624 24.213 4.1472 24.4306 4.1472C24.6481 4.1472 24.7652 4.26816 24.7652 4.49279C24.7652 4.80383 24.8824 4.83839 25.7692 4.83839C26.6561 4.83839 26.7732 4.87295 26.7732 5.18399C26.7732 5.40863 26.8904 5.52958 27.1079 5.52958C27.3254 5.52958 27.4426 5.65054 27.4426 5.87518C27.4426 6.16894 27.5597 6.22078 28.1119 6.22078C28.6641 6.22078 28.7812 6.27262 28.7812 6.56637C28.7812 6.79101 28.8984 6.91197 29.1159 6.91197C29.3334 6.91197 29.4506 7.03293 29.4506 7.25757C29.4506 7.55132 29.5677 7.60316 30.1199 7.60316C30.6721 7.60316 30.7892 7.655 30.7892 7.94876C30.7892 8.24252 30.9063 8.29436 31.4585 8.29436C32.0107 8.29436 32.1279 8.3462 32.1279 8.63995C32.1279 8.93371 32.245 8.98555 32.7972 8.98555C33.3494 8.98555 33.4665 9.03739 33.4665 9.33115C33.4665 9.55578 33.5837 9.67674 33.8012 9.67674C34.0857 9.67674 34.1359 9.7977 34.1359 10.3679C34.1359 10.9382 34.1861 11.0591 34.4705 11.0591C34.8052 11.0591 34.8052 11.1801 34.8052 16.2431C34.8052 21.3061 34.8052 21.427 35.1399 21.427C35.3574 21.427 35.4745 21.548 35.4745 21.7726C35.4745 21.9973 35.5917 22.1182 35.8092 22.1182C36.0267 22.1182 36.1439 21.9973 36.1439 21.7726C36.1439 21.4616 36.261 21.427 37.4825 21.427C38.704 21.427 38.8212 21.4616 38.8212 21.7726C38.8212 21.9973 38.9383 22.1182 39.1558 22.1182C39.4403 22.1182 39.4905 22.2392 39.4905 22.8094C39.4905 23.3796 39.4403 23.5006 39.1558 23.5006C38.9383 23.5006 38.8212 23.6216 38.8212 23.8462C38.8212 24.0708 38.704 24.1918 38.4865 24.1918C38.269 24.1918 38.1519 24.3128 38.1519 24.5374C38.1519 24.762 38.0347 24.883 37.8172 24.883C37.5327 24.883 37.4825 25.0039 37.4825 25.5742C37.4825 26.1444 37.4323 26.2654 37.1479 26.2654C36.8467 26.2654 36.8132 26.3863 36.8132 27.6478C36.8132 28.9092 36.7797 29.0301 36.4785 29.0301C36.261 29.0301 36.1439 29.1511 36.1439 29.3757C36.1439 29.6004 36.0267 29.7213 35.8092 29.7213C35.5917 29.7213 35.4745 29.8423 35.4745 30.0669C35.4745 30.3607 35.3574 30.4125 34.8052 30.4125C34.253 30.4125 34.1359 30.3607 34.1359 30.0669C34.1359 29.7559 34.0187 29.7213 33.1319 29.7213C32.245 29.7213 32.1279 29.6868 32.1279 29.3757C32.1279 29.0647 32.0107 29.0301 31.1239 29.0301H30.1199V29.7213C30.1199 30.2916 30.0697 30.4125 29.7852 30.4125C29.5677 30.4125 29.4506 30.5335 29.4506 30.7581C29.4506 31.0864 29.3334 31.1037 27.7772 31.1037C26.221 31.1037 26.1039 31.0864 26.1039 30.7581C26.1039 30.4471 25.9868 30.4125 25.0999 30.4125C24.213 30.4125 24.0959 30.4471 24.0959 30.7581C24.0959 30.9828 23.9788 31.1037 23.7612 31.1037C23.4768 31.1037 23.4266 31.2247 23.4266 31.7949V32.4861H22.4226C21.5357 32.4861 21.4186 32.4516 21.4186 32.1405C21.4186 31.8295 21.3015 31.7949 20.4146 31.7949C19.5277 31.7949 19.4106 31.7604 19.4106 31.4493C19.4106 31.2247 19.2935 31.1037 19.0759 31.1037C18.8584 31.1037 18.7413 30.9828 18.7413 30.7581C18.7413 30.5335 18.6241 30.4125 18.4066 30.4125C18.1891 30.4125 18.0719 30.2916 18.0719 30.0669C18.0719 29.7732 17.9548 29.7213 17.4026 29.7213C16.8504 29.7213 16.7333 29.6695 16.7333 29.3757C16.7333 29.0647 16.6161 29.0301 15.7293 29.0301C14.8424 29.0301 14.7253 29.0647 14.7253 29.3757C14.7253 29.6004 14.6081 29.7213 14.3906 29.7213C14.1731 29.7213 14.0559 29.8423 14.0559 30.0669C14.0559 30.378 13.9388 30.4125 13.0519 30.4125C12.1651 30.4125 12.048 30.4471 12.048 30.7581C12.048 31.0692 11.9308 31.1037 10.7093 31.1037C9.48776 31.1037 9.37063 31.0692 9.37063 30.7581C9.37063 30.4644 9.2535 30.4125 8.7013 30.4125C8.1491 30.4125 8.03197 30.3607 8.03197 30.0669C8.03197 29.7732 7.91484 29.7213 7.36264 29.7213H6.69331V29.0301C6.69331 28.4599 6.64311 28.339 6.35864 28.339C6.05744 28.339 6.02398 28.218 6.02398 27.3022V26.2654H5.35465C4.80245 26.2654 4.68532 26.2135 4.68532 25.9198C4.68532 25.6087 4.56818 25.5742 3.68132 25.5742C2.79446 25.5742 2.67732 25.5396 2.67732 25.2286C2.67732 25.0039 2.56019 24.883 2.34266 24.883C2.04146 24.883 2.00799 24.762 2.00799 23.8462C2.00799 22.9304 2.04146 22.8094 2.34266 22.8094C2.56019 22.8094 2.67732 22.9304 2.67732 23.155C2.67732 23.466 2.79446 23.5006 3.68132 23.5006C4.56818 23.5006 4.68532 23.466 4.68532 23.155C4.68532 22.9304 4.80245 22.8094 5.01998 22.8094C5.33791 22.8094 5.35465 22.6885 5.35465 20.0446C5.35465 17.4008 5.33791 17.2799 5.01998 17.2799C4.71878 17.2799 4.68532 17.1589 4.68532 15.8975C4.68532 14.6361 4.65185 14.5151 4.35065 14.5151C4.03272 14.5151 4.01598 14.3941 4.01598 12.7871V11.0591H5.01998C5.90684 11.0591 6.02398 11.0937 6.02398 11.4047C6.02398 11.7158 6.14111 11.7503 7.02797 11.7503C7.91484 11.7503 8.03197 11.7849 8.03197 12.0959C8.03197 12.3206 8.1491 12.4415 8.36663 12.4415C8.58417 12.4415 8.7013 12.5625 8.7013 12.7871C8.7013 13.0809 8.81843 13.1327 9.37063 13.1327C9.92283 13.1327 10.04 13.0809 10.04 12.7871C10.04 12.5625 10.1571 12.4415 10.3746 12.4415C10.5922 12.4415 10.7093 12.3206 10.7093 12.0959C10.7093 11.8713 10.5922 11.7503 10.3746 11.7503C10.1571 11.7503 10.04 11.6294 10.04 11.4047C10.04 11.111 9.92283 11.0591 9.37063 11.0591C8.81843 11.0591 8.7013 11.0073 8.7013 10.7135C8.7013 10.4025 8.58417 10.3679 7.6973 10.3679C6.81044 10.3679 6.69331 10.3334 6.69331 10.0223C6.69331 9.7113 6.57617 9.67674 5.68931 9.67674C4.80245 9.67674 4.68532 9.64218 4.68532 9.33115C4.68532 9.03739 4.80245 8.98555 5.35465 8.98555C5.90684 8.98555 6.02398 8.93371 6.02398 8.63995C6.02398 8.3462 6.14111 8.29436 6.69331 8.29436C7.24551 8.29436 7.36264 8.24252 7.36264 7.94876C7.36264 7.72412 7.47977 7.60316 7.6973 7.60316C7.91484 7.60316 8.03197 7.4822 8.03197 7.25757C8.03197 6.96381 8.1491 6.91197 8.7013 6.91197C9.2535 6.91197 9.37063 6.86013 9.37063 6.56637C9.37063 6.34174 9.48776 6.22078 9.7053 6.22078C9.92283 6.22078 10.04 6.09982 10.04 5.87518C10.04 5.58142 10.1571 5.52958 10.7093 5.52958C11.2615 5.52958 11.3786 5.47775 11.3786 5.18399C11.3786 4.89023 11.4958 4.83839 12.048 4.83839C12.6002 4.83839 12.7173 4.78655 12.7173 4.49279C12.7173 4.19904 12.8344 4.1472 13.3866 4.1472C13.9388 4.1472 14.0559 4.09536 14.0559 3.8016C14.0559 3.50784 14.1731 3.45601 14.7253 3.45601C15.2775 3.45601 15.3946 3.40417 15.3946 3.11041C15.3946 2.81665 15.5117 2.76481 16.0639 2.76481C16.6161 2.76481 16.7333 2.71297 16.7333 2.41922C16.7333 2.0909 16.8504 2.07362 19.0759 2.07362C21.3015 2.07362 21.4186 2.0909 21.4186 2.41922Z" fill="#463E3C"/>
<path d="M30.7892 12.0959C30.7892 12.3206 30.6721 12.4415 30.4545 12.4415C30.1701 12.4415 30.1199 12.5625 30.1199 13.1327C30.1199 13.703 30.1701 13.8239 30.4545 13.8239C30.6721 13.8239 30.7892 13.9449 30.7892 14.1695C30.7892 14.3941 30.9063 14.5151 31.1239 14.5151C31.3414 14.5151 31.4585 14.6361 31.4585 14.8607C31.4585 15.1545 31.5757 15.2063 32.1279 15.2063C32.6801 15.2063 32.7972 15.1545 32.7972 14.8607C32.7972 14.6361 32.9143 14.5151 33.1319 14.5151C33.4331 14.5151 33.4665 14.3941 33.4665 13.1327V11.7503H32.1279C30.9063 11.7503 30.7892 11.7849 30.7892 12.0959Z" fill="#463E3C"/>
<path d="M21.4187 12.7871C21.4187 13.0981 21.3016 13.1327 20.4147 13.1327C19.5278 13.1327 19.4107 13.1672 19.4107 13.4783C19.4107 13.8066 19.2936 13.8239 16.3987 13.8239C13.5039 13.8239 13.3867 13.8412 13.3867 14.1695C13.3867 14.4632 13.5039 14.5151 14.056 14.5151C14.6082 14.5151 14.7254 14.5669 14.7254 14.8607C14.7254 15.1717 14.8425 15.2063 15.7294 15.2063C16.6162 15.2063 16.7334 15.2408 16.7334 15.5519C16.7334 15.8456 16.8505 15.8975 17.4027 15.8975C17.9549 15.8975 18.072 15.8456 18.072 15.5519C18.072 15.2408 18.1892 15.2063 19.076 15.2063C19.9629 15.2063 20.08 15.1717 20.08 14.8607C20.08 14.636 20.1972 14.5151 20.4147 14.5151C20.6322 14.5151 20.7494 14.3941 20.7494 14.1695C20.7494 13.8584 20.8665 13.8239 21.7534 13.8239C22.6402 13.8239 22.7573 13.7893 22.7573 13.4783C22.7573 13.2536 22.8745 13.1327 23.092 13.1327C23.3095 13.1327 23.4267 13.0117 23.4267 12.7871C23.4267 12.4761 23.3095 12.4415 22.4227 12.4415C21.5358 12.4415 21.4187 12.4761 21.4187 12.7871Z" fill="#463E3C"/>
<path d="M18.7414 16.9343C18.7414 17.1589 18.6242 17.2799 18.4067 17.2799C18.1055 17.2799 18.072 17.4009 18.072 18.3167C18.072 19.2325 18.1055 19.3535 18.4067 19.3535C18.6242 19.3535 18.7414 19.4744 18.7414 19.6991C18.7414 19.9928 18.8585 20.0447 19.4107 20.0447C19.9629 20.0447 20.08 19.9928 20.08 19.6991C20.08 19.4744 20.1971 19.3535 20.4147 19.3535C20.7159 19.3535 20.7493 19.2325 20.7493 17.9711V16.5887H19.7453C18.8585 16.5887 18.7414 16.6233 18.7414 16.9343Z" fill="#463E3C"/>
<path d="M29.4504 17.6255C29.4504 17.9193 29.3333 17.9711 28.7811 17.9711C28.2289 17.9711 28.1118 18.023 28.1118 18.3167C28.1118 18.5414 27.9946 18.6623 27.7771 18.6623C27.5596 18.6623 27.4424 18.7833 27.4424 19.0079C27.4424 19.3017 27.3253 19.3535 26.7731 19.3535C26.2209 19.3535 26.1038 19.4054 26.1038 19.6991C26.1038 20.0101 25.9866 20.0447 25.0998 20.0447C24.2129 20.0447 24.0958 20.0793 24.0958 20.3903C24.0958 20.7013 23.9786 20.7359 22.7571 20.7359H21.4185V21.7727C21.4185 22.6885 21.4519 22.8095 21.7531 22.8095C21.9707 22.8095 22.0878 22.9304 22.0878 23.1551C22.0878 23.3797 22.2049 23.5007 22.4225 23.5007C22.64 23.5007 22.7571 23.6216 22.7571 23.8463C22.7571 24.1573 22.8743 24.1919 23.7611 24.1919C24.648 24.1919 24.7651 24.2264 24.7651 24.5375C24.7651 24.8658 24.8822 24.8831 26.4384 24.8831C27.9946 24.8831 28.1118 24.8658 28.1118 24.5375C28.1118 24.2264 28.2289 24.1919 29.1158 24.1919C30.0026 24.1919 30.1198 24.1573 30.1198 23.8463C30.1198 23.6216 30.2369 23.5007 30.4544 23.5007C30.672 23.5007 30.7891 23.3797 30.7891 23.1551C30.7891 22.9304 30.9062 22.8095 31.1238 22.8095C31.425 22.8095 31.4584 22.6885 31.4584 21.7727C31.4584 20.8569 31.4919 20.7359 31.7931 20.7359C32.0943 20.7359 32.1277 20.6149 32.1277 19.6991C32.1277 18.7833 32.0943 18.6623 31.7931 18.6623C31.5086 18.6623 31.4584 18.5414 31.4584 17.9711V17.2799H30.4544C29.5676 17.2799 29.4504 17.3145 29.4504 17.6255Z" fill="#463E3C"/>
<path d="M16.0639 18.3167C16.0639 18.5413 15.9467 18.6623 15.7292 18.6623C15.4113 18.6623 15.3945 18.7832 15.3945 22.1182C15.3945 25.4532 15.4113 25.5742 15.7292 25.5742C15.9467 25.5742 16.0639 25.6951 16.0639 25.9198C16.0639 26.1444 16.181 26.2654 16.3985 26.2654C16.7165 26.2654 16.7332 26.1444 16.7332 22.1182C16.7332 18.092 16.7165 17.9711 16.3985 17.9711C16.181 17.9711 16.0639 18.092 16.0639 18.3167Z" fill="#463E3C"/>
<path d="M52.5625 18.712H57.7305V21.16H52.5625V18.712ZM52.7865 25H49.6185V13.8H58.4025V16.248H52.7865V25ZM64.833 25V23.384L64.625 22.984V20.008C64.625 19.528 64.4757 19.16 64.177 18.904C63.889 18.6373 63.425 18.504 62.785 18.504C62.369 18.504 61.9477 18.5733 61.521 18.712C61.0944 18.84 60.7317 19.0213 60.433 19.256L59.409 17.192C59.8997 16.872 60.4864 16.6267 61.169 16.456C61.8624 16.2747 62.5504 16.184 63.233 16.184C64.641 16.184 65.729 16.5093 66.497 17.16C67.2757 17.8 67.665 18.808 67.665 20.184V25H64.833ZM62.273 25.144C61.5797 25.144 60.993 25.0267 60.513 24.792C60.033 24.5573 59.665 24.2373 59.409 23.832C59.1637 23.4267 59.041 22.9733 59.041 22.472C59.041 21.9387 59.1744 21.48 59.441 21.096C59.7184 20.7013 60.1397 20.4027 60.705 20.2C61.2704 19.9867 62.001 19.88 62.897 19.88H64.945V21.464H63.313C62.8224 21.464 62.4757 21.544 62.273 21.704C62.081 21.864 61.985 22.0773 61.985 22.344C61.985 22.6107 62.0864 22.824 62.289 22.984C62.4917 23.144 62.769 23.224 63.121 23.224C63.4517 23.224 63.7504 23.144 64.017 22.984C64.2944 22.8133 64.497 22.5573 64.625 22.216L65.041 23.336C64.881 23.9333 64.5664 24.3867 64.097 24.696C63.6384 24.9947 63.0304 25.144 62.273 25.144ZM74.2373 25.144C73.2133 25.144 72.3173 24.952 71.5493 24.568C70.792 24.1733 70.2 23.64 69.7733 22.968C69.3573 22.2853 69.1493 21.512 69.1493 20.648C69.1493 19.784 69.352 19.016 69.7573 18.344C70.1733 17.6613 70.744 17.1333 71.4693 16.76C72.1946 16.376 73.0106 16.184 73.9173 16.184C74.7706 16.184 75.5493 16.36 76.2533 16.712C76.9573 17.0533 77.5173 17.56 77.9333 18.232C78.3493 18.904 78.5573 19.72 78.5573 20.68C78.5573 20.7867 78.552 20.9093 78.5413 21.048C78.5306 21.1867 78.52 21.3147 78.5093 21.432H71.6453V19.832H76.8933L75.7413 20.28C75.752 19.8853 75.6773 19.544 75.5173 19.256C75.368 18.968 75.1546 18.744 74.8773 18.584C74.6106 18.424 74.296 18.344 73.9333 18.344C73.5706 18.344 73.2506 18.424 72.9733 18.584C72.7066 18.744 72.4986 18.9733 72.3493 19.272C72.2 19.56 72.1253 19.9013 72.1253 20.296V20.76C72.1253 21.1867 72.2106 21.5547 72.3813 21.864C72.5626 22.1733 72.8186 22.4133 73.1493 22.584C73.48 22.744 73.8746 22.824 74.3333 22.824C74.76 22.824 75.1226 22.7653 75.4213 22.648C75.7306 22.52 76.0346 22.328 76.3333 22.072L77.9333 23.736C77.5173 24.1947 77.0053 24.5467 76.3973 24.792C75.7893 25.0267 75.0693 25.144 74.2373 25.144ZM83.8309 25.144C82.7216 25.144 81.8576 24.872 81.2389 24.328C80.6202 23.7733 80.3109 22.9413 80.3109 21.832V14.392H83.3509V21.8C83.3509 22.1093 83.4362 22.3547 83.6069 22.536C83.7776 22.7067 83.9962 22.792 84.2629 22.792C84.6256 22.792 84.9349 22.7013 85.1909 22.52L85.9429 24.648C85.6869 24.8187 85.3722 24.9413 84.9989 25.016C84.6256 25.1013 84.2362 25.144 83.8309 25.144ZM79.0469 18.92V16.648H85.3349V18.92H79.0469ZM90.8153 25.144C89.706 25.144 88.842 24.872 88.2233 24.328C87.6046 23.7733 87.2953 22.9413 87.2953 21.832V14.392H90.3353V21.8C90.3353 22.1093 90.4206 22.3547 90.5913 22.536C90.762 22.7067 90.9806 22.792 91.2473 22.792C91.61 22.792 91.9193 22.7013 92.1753 22.52L92.9273 24.648C92.6713 24.8187 92.3566 24.9413 91.9833 25.016C91.61 25.1013 91.2206 25.144 90.8153 25.144ZM86.0313 18.92V16.648H92.3193V18.92H86.0313ZM98.3935 25.144C97.3695 25.144 96.4735 24.952 95.7055 24.568C94.9482 24.1733 94.3562 23.64 93.9295 22.968C93.5135 22.2853 93.3055 21.512 93.3055 20.648C93.3055 19.784 93.5082 19.016 93.9135 18.344C94.3295 17.6613 94.9002 17.1333 95.6255 16.76C96.3509 16.376 97.1669 16.184 98.0735 16.184C98.9269 16.184 99.7055 16.36 100.41 16.712C101.114 17.0533 101.674 17.56 102.09 18.232C102.506 18.904 102.714 19.72 102.714 20.68C102.714 20.7867 102.708 20.9093 102.698 21.048C102.687 21.1867 102.676 21.3147 102.666 21.432H95.8015V19.832H101.05L99.8975 20.28C99.9082 19.8853 99.8335 19.544 99.6735 19.256C99.5242 18.968 99.3109 18.744 99.0335 18.584C98.7669 18.424 98.4522 18.344 98.0895 18.344C97.7269 18.344 97.4069 18.424 97.1295 18.584C96.8629 18.744 96.6549 18.9733 96.5055 19.272C96.3562 19.56 96.2815 19.9013 96.2815 20.296V20.76C96.2815 21.1867 96.3669 21.5547 96.5375 21.864C96.7189 22.1733 96.9749 22.4133 97.3055 22.584C97.6362 22.744 98.0309 22.824 98.4895 22.824C98.9162 22.824 99.2789 22.7653 99.5775 22.648C99.8869 22.52 100.191 22.328 100.49 22.072L102.09 23.736C101.674 24.1947 101.162 24.5467 100.554 24.792C99.9455 25.0267 99.2255 25.144 98.3935 25.144ZM104.115 25V16.328H107.011V18.856L106.579 18.136C106.835 17.4853 107.251 17 107.827 16.68C108.403 16.3493 109.102 16.184 109.923 16.184V18.92C109.784 18.8987 109.662 18.888 109.555 18.888C109.459 18.8773 109.352 18.872 109.235 18.872C108.616 18.872 108.115 19.0427 107.731 19.384C107.347 19.7147 107.155 20.2587 107.155 21.016V25H104.115ZM116.634 25.144C115.898 25.144 115.268 24.984 114.746 24.664C114.223 24.3333 113.823 23.8427 113.546 23.192C113.279 22.5307 113.146 21.688 113.146 20.664C113.146 19.6293 113.274 18.7867 113.53 18.136C113.786 17.4747 114.17 16.984 114.682 16.664C115.204 16.344 115.855 16.184 116.634 16.184C117.423 16.184 118.138 16.3707 118.778 16.744C119.428 17.1067 119.94 17.624 120.314 18.296C120.698 18.9573 120.89 19.7467 120.89 20.664C120.89 21.5813 120.698 22.376 120.314 23.048C119.94 23.72 119.428 24.2373 118.778 24.6C118.138 24.9627 117.423 25.144 116.634 25.144ZM111.178 28.104V16.328H114.074V17.8L114.058 20.664L114.218 23.544V28.104H111.178ZM115.994 22.728C116.335 22.728 116.639 22.648 116.906 22.488C117.183 22.328 117.402 22.0933 117.562 21.784C117.732 21.4747 117.818 21.1013 117.818 20.664C117.818 20.2267 117.732 19.8533 117.562 19.544C117.402 19.2347 117.183 19 116.906 18.84C116.639 18.68 116.335 18.6 115.994 18.6C115.652 18.6 115.343 18.68 115.066 18.84C114.799 19 114.58 19.2347 114.41 19.544C114.25 19.8533 114.17 20.2267 114.17 20.664C114.17 21.1013 114.25 21.4747 114.41 21.784C114.58 22.0933 114.799 22.328 115.066 22.488C115.343 22.648 115.652 22.728 115.994 22.728Z" fill="#1E1E1F"/>
</svg>
