<svg width="460" height="413" viewBox="0 0 460 413" fill="none" xmlns="http://www.w3.org/2000/svg">
<path fill-rule="evenodd" clip-rule="evenodd" d="M224.341 0.31245C291.248 2.08927 358.303 19.0709 402.184 69.7409C448.288 122.977 473.11 196.708 452.905 264.238C433.863 327.88 368.756 359.64 307.709 385.499C251.554 409.286 189.084 426.195 134.416 399.15C80.251 372.353 58.6063 311.85 41.4629 253.783C22.2076 188.564 -5.48419 115.08 34.2773 59.9705C75.2135 3.23242 154.52 -1.54174 224.341 0.31245Z" fill="#3C3B3D"/>
<path fill-rule="evenodd" clip-rule="evenodd" d="M174.813 45.0498C217.629 43.5737 253.166 75.1594 278.413 109.761C302.157 142.302 307.909 181.716 303.765 221.781C298.628 271.439 293.089 324.95 253.066 354.806C203.612 391.697 135.895 415.324 80.3631 388.43C24.9144 361.576 0.12736 293.841 0.000167478 232.245C-0.101571 182.977 46.1706 152.622 79.8018 116.608C108.271 86.1228 133.12 46.4872 174.813 45.0498Z" fill="#6D6C70"/>
</svg>
