<svg width="30" height="26" viewBox="0 0 30 26" fill="none" xmlns="http://www.w3.org/2000/svg">
<path d="M0 1C0 0.447715 0.447715 0 1 0H29C29.5523 0 30 0.447715 30 1V2.25C30 2.80228 29.5523 3.25 29 3.25H1C0.447716 3.25 0 2.80228 0 2.25V1ZM0 12.375C0 11.8227 0.447715 11.375 1 11.375H29C29.5523 11.375 30 11.8227 30 12.375V13.625C30 14.1773 29.5523 14.625 29 14.625H1C0.447716 14.625 0 14.1773 0 13.625V12.375ZM0 23.75C0 23.1977 0.447715 22.75 1 22.75H29C29.5523 22.75 30 23.1977 30 23.75V25C30 25.5523 29.5523 26 29 26H1C0.447716 26 0 25.5523 0 25V23.75Z" fill="#F2F2F2"/>
</svg>
